{
  "accessors": [
    {
      "bufferView": 2,
      "componentType": 5126,
      "count": 1098,
      "max": [
        0.045000005513429642,
        0.074000000953674316,
        0.013000012375414371
      ],
      "min": [
        -0.045000005513429642,
        -0.074000000953674316,
        -0.019000008702278137
      ],
      "type": "VEC3"
    },
    {
      "bufferView": 2,
      "byteOffset": 13176,
      "componentType": 5126,
      "count": 1098,
      "max": [
        1,
        1,
        1
      ],
      "min": [
        -1,
        -1,
        -1
      ],
      "type": "VEC3"
    },
    {
      "bufferView": 3,
      "componentType": 5126,
      "count": 1098,
      "max": [
        1,
        1,
        1,
        1
      ],
      "min": [
        -1,
        -1,
        -1,
        -1
      ],
      "type": "VEC4"
    },
    {
      "bufferView": 1,
      "componentType": 5126,
      "count": 1098,
      "max": [
        0.97233802080154419,
        0.96088504791259766
      ],
      "min": [
        0.0074554774910211563,
        0.0074813258834183216
      ],
      "type": "VEC2"
    },
    {
      "bufferView": 1,
      "byteOffset": 8784,
      "componentType": 5126,
      "count": 1098,
      "max": [
        0,
        0
      ],
      "min": [
        0,
        0
      ],
      "type": "VEC2"
    },
    {
      "bufferView": 0,
      "componentType": 5125,
      "count": 4128,
      "max": [
        1097
      ],
      "min": [
        0
      ],
      "type": "SCALAR"
    },
    {
      "bufferView": 2,
      "byteOffset": 26352,
      "componentType": 5126,
      "count": 2386,
      "max": [
        0.029000002890825272,
        0.032999999821186066,
        0.0040000109001994133
      ],
      "min": [
        -0.029000002890825272,
        -0.032999999821186066,
        -0.0040000085718929768
      ],
      "type": "VEC3"
    },
    {
      "bufferView": 2,
      "byteOffset": 54984,
      "componentType": 5126,
      "count": 2386,
      "max": [
        1,
        1,
        1
      ],
      "min": [
        -1,
        -1,
        -1
      ],
      "type": "VEC3"
    },
    {
      "bufferView": 3,
      "byteOffset": 17568,
      "componentType": 5126,
      "count": 2386,
      "max": [
        1,
        0.92276352643966675,
        1,
        1
      ],
      "min": [
        -1,
        -1,
        -1,
        -1
      ],
      "type": "VEC4"
    },
    {
      "bufferView": 1,
      "byteOffset": 17568,
      "componentType": 5126,
      "count": 2386,
      "max": [
        0.9922635555267334,
        0.99245506525039673
      ],
      "min": [
        0.0074858181178569794,
        0.0074823526665568352
      ],
      "type": "VEC2"
    },
    {
      "bufferView": 0,
      "byteOffset": 16512,
      "componentType": 5125,
      "count": 3930,
      "max": [
        2385
      ],
      "min": [
        0
      ],
      "type": "SCALAR"
    },
    {
      "bufferView": 2,
      "byteOffset": 83616,
      "componentType": 5126,
      "count": 316,
      "max": [
        0.0075156129896640778,
        0.015000003390014172,
        0.01499272882938385
      ],
      "min": [
        -0.015000000596046448,
        -0.0075156111270189285,
        0.011874926276504993
      ],
      "type": "VEC3"
    },
    {
      "bufferView": 2,
      "byteOffset": 87408,
      "componentType": 5126,
      "count": 316,
      "max": [
        0.99518483877182007,
        0.99518495798110962,
        0.99740171432495117
      ],
      "min": [
        -0.99518495798110962,
        -0.99518477916717529,
        -4.7243071321645402e-07
      ],
      "type": "VEC3"
    },
    {
      "bufferView": 3,
      "byteOffset": 55744,
      "componentType": 5126,
      "count": 316,
      "max": [
        0.99995386600494385,
        0.99965107440948486,
        0.99862545728683472,
        1
      ],
      "min": [
        -0.99927932024002075,
        -0.99965113401412964,
        -0.99860233068466187,
        -1
      ],
      "type": "VEC4"
    },
    {
      "bufferView": 1,
      "byteOffset": 36656,
      "componentType": 5126,
      "count": 316,
      "max": [
        0.99166303873062134,
        0.57663542032241821
      ],
      "min": [
        0.069376058876514435,
        0.0074876765720546246
      ],
      "type": "VEC2"
    },
    {
      "bufferView": 0,
      "byteOffset": 32232,
      "componentType": 5125,
      "count": 1374,
      "max": [
        315
      ],
      "min": [
        0
      ],
      "type": "SCALAR"
    },
    {
      "bufferView": 2,
      "byteOffset": 91200,
      "componentType": 5126,
      "count": 282,
      "max": [
        0.020322348922491074,
        0.0032416321337223053,
        0.0012650459539145231
      ],
      "min": [
        -0.0050916392356157303,
        -0.0033197337761521339,
        -7.9684608911279042e-10
      ],
      "type": "VEC3"
    },
    {
      "bufferView": 2,
      "byteOffset": 94584,
      "componentType": 5126,
      "count": 282,
      "max": [
        0.99696850776672363,
        0.99696832895278931,
        1
      ],
      "min": [
        -0.99696832895278931,
        -0.99696826934814453,
        0
      ],
      "type": "VEC3"
    },
    {
      "bufferView": 3,
      "byteOffset": 60800,
      "componentType": 5126,
      "count": 282,
      "max": [
        0.89284956455230713,
        0.99750906229019165,
        1,
        1
      ],
      "min": [
        -0.72535544633865356,
        -0.10402956604957581,
        -1,
        -1
      ],
      "type": "VEC4"
    },
    {
      "bufferView": 1,
      "byteOffset": 39184,
      "componentType": 5126,
      "count": 282,
      "max": [
        0.3898041844367981,
        0.46230292320251465
      ],
      "min": [
        0.37351691722869873,
        0.42167150974273682
      ],
      "type": "VEC2"
    },
    {
      "bufferView": 0,
      "byteOffset": 37728,
      "componentType": 5125,
      "count": 1512,
      "max": [
        281
      ],
      "min": [
        0
      ],
      "type": "SCALAR"
    },
    {
      "bufferView": 2,
      "byteOffset": 97968,
      "componentType": 5126,
      "count": 194,
      "max": [
        0.0053248167969286442,
        0.0053248153999447823,
        0.0014910111203789711
      ],
      "min": [
        -0.02036404050886631,
        -0.012352492660284042,
        5.7534161896910518e-05
      ],
      "type": "VEC3"
    },
    {
      "bufferView": 2,
      "byteOffset": 100296,
      "componentType": 5126,
      "count": 194,
      "max": [
        1,
        1,
        1
      ],
      "min": [
        -1,
        -1,
        -3.2635102797939908e-07
      ],
      "type": "VEC3"
    },
    {
      "bufferView": 3,
      "byteOffset": 65312,
      "componentType": 5126,
      "count": 194,
      "max": [
        0.013865924440324306,
        0.65271002054214478,
        0.99856823682785034,
        1
      ],
      "min": [
        -0.96221631765365601,
        -0.32625657320022583,
        -0.99856394529342651,
        1
      ],
      "type": "VEC4"
    },
    {
      "bufferView": 1,
      "byteOffset": 41440,
      "componentType": 5126,
      "count": 194,
      "max": [
        0.9245070219039917,
        0.44080251455307007
      ],
      "min": [
        0.88536691665649414,
        0.40166234970092773
      ],
      "type": "VEC2"
    },
    {
      "bufferView": 0,
      "byteOffset": 43776,
      "componentType": 5125,
      "count": 1008,
      "max": [
        193
      ],
      "min": [
        0
      ],
      "type": "SCALAR"
    }
  ],
  "asset": {
    "extras": {
      "author": "chiara.dalfior (https://sketchfab.com/chiara.dalfior)",
      "license": "CC-BY-4.0 (http://creativecommons.org/licenses/by/4.0/)",
      "source": "https://sketchfab.com/3d-models/game-boy-ac2994faa5d44c2d8061b5e93fc396ed",
      "title": "Game Boy"
    },
    "generator": "Sketchfab-8.1.0",
    "version": "2.0"
  },
  "bufferViews": [
    {
      "buffer": 0,
      "byteLength": 47808,
      "byteOffset": 0,
      "name": "floatBufferViews",
      "target": 34963
    },
    {
      "buffer": 0,
      "byteLength": 42992,
      "byteOffset": 47808,
      "byteStride": 8,
      "name": "floatBufferViews",
      "target": 34962
    },
    {
      "buffer": 0,
      "byteLength": 102624,
      "byteOffset": 90800,
      "byteStride": 12,
      "name": "floatBufferViews",
      "target": 34962
    },
    {
      "buffer": 0,
      "byteLength": 68416,
      "byteOffset": 193424,
      "byteStride": 16,
      "name": "floatBufferViews",
      "target": 34962
    }
  ],
  "buffers": [
    {
      "byteLength": 261840,
      "uri": "scene.bin"
    }
  ],
  "images": [
    {
      "uri": "textures/atlas_baseColor.png"
    },
    {
      "uri": "textures/atlas_metallicRoughness.png"
    },
    {
      "uri": "textures/atlas_emissive.png"
    },
    {
      "uri": "textures/atlas_normal.png"
    }
  ],
  "materials": [
    {
      "doubleSided": true,
      "emissiveFactor": [
        1,
        1,
        1
      ],
      "emissiveTexture": {
        "index": 2,
        "texCoord": 0
      },
      "name": "atlas",
      "normalTexture": {
        "index": 3,
        "scale": 1,
        "texCoord": 0
      },
      "pbrMetallicRoughness": {
        "baseColorFactor": [
          1,
          1,
          1,
          1
        ],
        "baseColorTexture": {
          "index": 0,
          "texCoord": 0
        },
        "metallicFactor": 1,
        "metallicRoughnessTexture": {
          "index": 1,
          "texCoord": 0
        },
        "roughnessFactor": 1
      }
    }
  ],
  "meshes": [
    {
      "name": "base_gameboy_atlas_0",
      "primitives": [
        {
          "attributes": {
            "NORMAL": 1,
            "POSITION": 0,
            "TANGENT": 2,
            "TEXCOORD_0": 3,
            "TEXCOORD_1": 4
          },
          "indices": 5,
          "material": 0,
          "mode": 4
        }
      ]
    },
    {
      "name": "cartuccia_atlas_0",
      "primitives": [
        {
          "attributes": {
            "NORMAL": 7,
            "POSITION": 6,
            "TANGENT": 8,
            "TEXCOORD_0": 9
          },
          "indices": 10,
          "material": 0,
          "mode": 4
        }
      ]
    },
    {
      "name": "Cube_atlas_0",
      "primitives": [
        {
          "attributes": {
            "NORMAL": 12,
            "POSITION": 11,
            "TANGENT": 13,
            "TEXCOORD_0": 14
          },
          "indices": 15,
          "material": 0,
          "mode": 4
        }
      ]
    },
    {
      "name": "Circle.002_atlas_0",
      "primitives": [
        {
          "attributes": {
            "NORMAL": 17,
            "POSITION": 16,
            "TANGENT": 18,
            "TEXCOORD_0": 19
          },
          "indices": 20,
          "material": 0,
          "mode": 4
        }
      ]
    },
    {
      "name": "Circle.001_atlas_0",
      "primitives": [
        {
          "attributes": {
            "NORMAL": 22,
            "POSITION": 21,
            "TANGENT": 23,
            "TEXCOORD_0": 24
          },
          "indices": 25,
          "material": 0,
          "mode": 4
        }
      ]
    }
  ],
  "nodes": [
    {
      "children": [
        1
      ],
      "name": "RootNode (gltf orientation matrix)",
      "rotation": [
        -0.70710678118654746,
        -0,
        -0,
        0.70710678118654757
      ]
    },
    {
      "children": [
        2
      ],
      "name": "RootNode (model correction matrix)"
    },
    {
      "children": [
        3
      ],
      "matrix": [
        1,
        0,
        0,
        0,
        0,
        0,
        1,
        0,
        0,
        -1,
        0,
        0,
        0,
        0,
        0,
        1
      ],
      "name": "155a65d0a0604bebb8a39aa160c5bae9.fbx"
    },
    {
      "children": [
        4,
        6,
        8,
        10,
        12
      ],
      "name": "RootNode"
    },
    {
      "children": [
        5
      ],
      "matrix": [
        100,
        0,
        0,
        0,
        0,
        99.999999999999716,
        -7.5497901264043296e-06,
        0,
        0,
        7.5497901264043296e-06,
        99.999999999999716,
        0,
        0,
        10.059416770935059,
        0.86000275611877441,
        1
      ],
      "name": "base_gameboy"
    },
    {
      "mesh": 0,
      "name": "base_gameboy_atlas_0"
    },
    {
      "children": [
        7
      ],
      "matrix": [
        100,
        0,
        0,
        0,
        0,
        99.999999999999716,
        -7.5497901264043296e-06,
        0,
        0,
        7.5497901264043296e-06,
        99.999999999999716,
        0,
        0,
        14.159417152404785,
        -0.31173181533813477,
        1
      ],
      "name": "cartuccia"
    },
    {
      "mesh": 1,
      "name": "cartuccia_atlas_0"
    },
    {
      "children": [
        9
      ],
      "matrix": [
        100,
        0,
        0,
        0,
        0,
        99.999999999999716,
        -7.5497901264043296e-06,
        0,
        0,
        7.5497901264043296e-06,
        99.999999999999716,
        0,
        -2.2861404418945312,
        7.0792703628540039,
        0.97251003980636597,
        1
      ],
      "name": "Cube"
    },
    {
      "mesh": 2,
      "name": "Cube_atlas_0"
    },
    {
      "children": [
        11
      ],
      "matrix": [
        100,
        0,
        0,
        0,
        0,
        99.999999999999716,
        -7.5497901264043296e-06,
        0,
        0,
        7.5497901264043296e-06,
        99.999999999999716,
        0,
        -1.2482155561447144,
        5.2535982131958008,
        2.160003662109375,
        1
      ],
      "name": "Circle.002"
    },
    {
      "mesh": 3,
      "name": "Circle.002_atlas_0"
    },
    {
      "children": [
        13
      ],
      "matrix": [
        100,
        0,
        0,
        0,
        0,
        99.999999999999716,
        -7.5497901264043296e-06,
        0,
        0,
        7.5497901264043296e-06,
        99.999999999999716,
        0,
        3.326617956161499,
        7.9103469848632812,
        2.1542484760284424,
        1
      ],
      "name": "Circle.001"
    },
    {
      "mesh": 4,
      "name": "Circle.001_atlas_0"
    }
  ],
  "samplers": [
    {
      "magFilter": 9729,
      "minFilter": 9987,
      "wrapS": 10497,
      "wrapT": 10497
    }
  ],
  "scene": 0,
  "scenes": [
    {
      "name": "OSG_Scene",
      "nodes": [
        0
      ]
    }
  ],
  "textures": [
    {
      "sampler": 0,
      "source": 0
    },
    {
      "sampler": 0,
      "source": 1
    },
    {
      "sampler": 0,
      "source": 2
    },
    {
      "sampler": 0,
      "source": 3
    }
  ]
}

