{
  "accessors": [
    {
      "bufferView": 2,
      "componentType": 5126,
      "count": 451,
      "max": [
        0.738544762134552,
        0.032338362187147141,
        0.37161999940872192
      ],
      "min": [
        -0.738544762134552,
        -0.24317348003387451,
        -0.011185920797288418
      ],
      "type": "VEC3"
    },
    {
      "bufferView": 2,
      "byteOffset": 5412,
      "componentType": 5126,
      "count": 451,
      "max": [
        1,
        1,
        1
      ],
      "min": [
        -1,
        -0.98688679933547974,
        -1
      ],
      "type": "VEC3"
    },
    {
      "bufferView": 3,
      "componentType": 5126,
      "count": 451,
      "max": [
        1,
        1,
        0.92770683765411377,
        1
      ],
      "min": [
        -1,
        -1,
        -0.97504144906997681,
        -1
      ],
      "type": "VEC4"
    },
    {
      "bufferView": 1,
      "componentType": 5126,
      "count": 451,
      "max": [
        0.99181032180786133,
        0.97886371612548828
      ],
      "min": [
        0.011672412045300007,
        0.016351351514458656
      ],
      "type": "VEC2"
    },
    {
      "bufferView": 1,
      "byteOffset": 3608,
      "componentType": 5126,
      "count": 451,
      "max": [
        0.99181032180786133,
        0.97886371612548828
      ],
      "min": [
        0.011672412045300007,
        0.016351351514458656
      ],
      "type": "VEC2"
    },
    {
      "bufferView": 0,
      "componentType": 5125,
      "count": 1824,
      "max": [
        450
      ],
      "min": [
        0
      ],
      "type": "SCALAR"
    },
    {
      "bufferView": 2,
      "byteOffset": 10824,
      "componentType": 5126,
      "count": 621,
      "max": [
        1.0399999618530273,
        -0.10638890415430069,
        1.2722195386886597
      ],
      "min": [
        -1.0400002002716064,
        -0.26811254024505615,
        0.10221952199935913
      ],
      "type": "VEC3"
    },
    {
      "bufferView": 2,
      "byteOffset": 18276,
      "componentType": 5126,
      "count": 621,
      "max": [
        1,
        1,
        1
      ],
      "min": [
        -1,
        -1,
        -1
      ],
      "type": "VEC3"
    },
    {
      "bufferView": 3,
      "byteOffset": 7216,
      "componentType": 5126,
      "count": 621,
      "max": [
        1,
        0.99993336200714111,
        1,
        1
      ],
      "min": [
        -1,
        -0.99984067678451538,
        -0.9988134503364563,
        1
      ],
      "type": "VEC4"
    },
    {
      "bufferView": 1,
      "byteOffset": 7216,
      "componentType": 5126,
      "count": 621,
      "max": [
        0.99028050899505615,
        0.97339862585067749
      ],
      "min": [
        0.01868688128888607,
        0.010196061804890633
      ],
      "type": "VEC2"
    },
    {
      "bufferView": 1,
      "byteOffset": 12184,
      "componentType": 5126,
      "count": 621,
      "max": [
        0.99028050899505615,
        0.97339862585067749
      ],
      "min": [
        0.01868688128888607,
        0.010196061804890633
      ],
      "type": "VEC2"
    },
    {
      "bufferView": 1,
      "byteOffset": 17152,
      "componentType": 5126,
      "count": 621,
      "max": [
        0.99028050899505615,
        0.97339862585067749
      ],
      "min": [
        0.01868688128888607,
        0.010196061804890633
      ],
      "type": "VEC2"
    },
    {
      "bufferView": 0,
      "byteOffset": 7296,
      "componentType": 5125,
      "count": 2580,
      "max": [
        620
      ],
      "min": [
        0
      ],
      "type": "SCALAR"
    }
  ],
  "asset": {
    "extras": {
      "author": "Agustín Hönnun (https://sketchfab.com/Agustin_Honnun)",
      "license": "CC-BY-4.0 (http://creativecommons.org/licenses/by/4.0/)",
      "source": "https://sketchfab.com/3d-models/curved-smart-tv-free-agustin-honnun-0c786a8163b0472f9e4834db84f17ba9",
      "title": "Curved Smart TV [FREE] | Agustin Honnun"
    },
    "generator": "Sketchfab-8.7.0",
    "version": "2.0"
  },
  "bufferViews": [
    {
      "buffer": 0,
      "byteLength": 17616,
      "byteOffset": 0,
      "name": "floatBufferViews",
      "target": 34963
    },
    {
      "buffer": 0,
      "byteLength": 22120,
      "byteOffset": 17616,
      "byteStride": 8,
      "name": "floatBufferViews",
      "target": 34962
    },
    {
      "buffer": 0,
      "byteLength": 25728,
      "byteOffset": 39736,
      "byteStride": 12,
      "name": "floatBufferViews",
      "target": 34962
    },
    {
      "buffer": 0,
      "byteLength": 17152,
      "byteOffset": 65464,
      "byteStride": 16,
      "name": "floatBufferViews",
      "target": 34962
    }
  ],
  "buffers": [
    {
      "byteLength": 82616,
      "uri": "scene.bin"
    }
  ],
  "images": [
    {
      "uri": "textures/TVBase_baseColor.png"
    },
    {
      "uri": "textures/TVBase_metallicRoughness.png"
    },
    {
      "uri": "textures/TVBase_normal.png"
    },
    {
      "uri": "textures/TVSreen_baseColor.png"
    },
    {
      "uri": "textures/TVSreen_metallicRoughness.png"
    },
    {
      "uri": "textures/TVSreen_emissive.png"
    },
    {
      "uri": "textures/TVSreen_normal.png"
    }
  ],
  "materials": [
    {
      "doubleSided": true,
      "emissiveFactor": [
        0,
        0,
        0
      ],
      "name": "TVBase",
      "normalTexture": {
        "index": 2,
        "scale": 0.0078125,
        "texCoord": 0
      },
      "pbrMetallicRoughness": {
        "baseColorFactor": [
          1,
          1,
          1,
          1
        ],
        "baseColorTexture": {
          "index": 0,
          "texCoord": 0
        },
        "metallicFactor": 1,
        "metallicRoughnessTexture": {
          "index": 1,
          "texCoord": 0
        },
        "roughnessFactor": 0.37366615853658536
      }
    },
    {
      "doubleSided": true,
      "emissiveFactor": [
        0,
        0,
        0
      ],
      "emissiveTexture": {
        "index": 5,
        "texCoord": 0
      },
      "name": "TVSreen",
      "normalTexture": {
        "index": 6,
        "scale": 0.58098323170731703,
        "texCoord": 0
      },
      "pbrMetallicRoughness": {
        "baseColorFactor": [
          1,
          1,
          1,
          1
        ],
        "baseColorTexture": {
          "index": 3,
          "texCoord": 0
        },
        "metallicFactor": 0,
        "metallicRoughnessTexture": {
          "index": 4,
          "texCoord": 0
        },
        "roughnessFactor": 0.36147103658536583
      }
    }
  ],
  "meshes": [
    {
      "name": "Base_TVBase_0",
      "primitives": [
        {
          "attributes": {
            "NORMAL": 1,
            "POSITION": 0,
            "TANGENT": 2,
            "TEXCOORD_0": 3,
            "TEXCOORD_1": 4
          },
          "indices": 5,
          "material": 0,
          "mode": 4
        }
      ]
    },
    {
      "name": "Screen_TVSreen_0",
      "primitives": [
        {
          "attributes": {
            "NORMAL": 7,
            "POSITION": 6,
            "TANGENT": 8,
            "TEXCOORD_0": 9,
            "TEXCOORD_1": 10,
            "TEXCOORD_2": 11
          },
          "indices": 12,
          "material": 1,
          "mode": 4
        }
      ]
    }
  ],
  "nodes": [
    {
      "children": [
        1
      ],
      "name": "RootNode (gltf orientation matrix)",
      "rotation": [
        -0.70710678118654746,
        -0,
        -0,
        0.70710678118654757
      ]
    },
    {
      "children": [
        2
      ],
      "name": "RootNode (model correction matrix)"
    },
    {
      "children": [
        3
      ],
      "matrix": [
        1,
        0,
        0,
        0,
        0,
        0,
        1,
        0,
        0,
        -1,
        0,
        0,
        0,
        0,
        0,
        1
      ],
      "name": "b1e84eea627f4b858113fcf7dcd2d679.fbx"
    },
    {
      "children": [
        4,
        6
      ],
      "name": "RootNode"
    },
    {
      "children": [
        5
      ],
      "matrix": [
        100,
        0,
        0,
        0,
        0,
        -1.6292067939183141e-05,
        -99.999999999998678,
        0,
        0,
        99.999999999998678,
        -1.6292067939183141e-05,
        0,
        0,
        0,
        0,
        1
      ],
      "name": "Base"
    },
    {
      "mesh": 0,
      "name": "Base_TVBase_0"
    },
    {
      "children": [
        7
      ],
      "matrix": [
        100,
        0,
        0,
        0,
        0,
        -1.6292067939183141e-05,
        -99.999999999998678,
        0,
        0,
        99.999999999998678,
        -1.6292067939183141e-05,
        0,
        0,
        0,
        0,
        1
      ],
      "name": "Screen"
    },
    {
      "mesh": 1,
      "name": "Screen_TVSreen_0"
    }
  ],
  "samplers": [
    {
      "magFilter": 9729,
      "minFilter": 9987,
      "wrapS": 10497,
      "wrapT": 10497
    }
  ],
  "scene": 0,
  "scenes": [
    {
      "name": "OSG_Scene",
      "nodes": [
        0
      ]
    }
  ],
  "textures": [
    {
      "sampler": 0,
      "source": 0
    },
    {
      "sampler": 0,
      "source": 1
    },
    {
      "sampler": 0,
      "source": 2
    },
    {
      "sampler": 0,
      "source": 3
    },
    {
      "sampler": 0,
      "source": 4
    },
    {
      "sampler": 0,
      "source": 5
    },
    {
      "sampler": 0,
      "source": 6
    }
  ]
}

