{
   "accessors" : [
      {
         "bufferView" : 2,
         "byteOffset" : 0,
         "componentType" : 5126,
         "count" : 8,
         "max" : [ 0.6800203323364258, 0.6800203323364258, 0.6800203323364258, 0.2509804 ],
         "min" : [ 0.6800203323364258, 0.6800203323364258, 0.6800203323364258, 0.2509804 ],
         "name" : "accessor_color_m0-PolyGlass24_-339622",
         "type" : "VEC4"
      },
      {
         "bufferView" : 2,
         "byteOffset" : 128,
         "componentType" : 5126,
         "count" : 240,
         "max" : [ 0.1939721554517746, 0.08919350802898407, 0.06190747767686844, 1 ],
         "min" : [ 0.1939721554517746, 0.08919350802898407, 0.06190747767686844, 1 ],
         "name" : "accessor_color_m1-PolyPaper20_-339170",
         "type" : "VEC4"
      },
      {
         "bufferView" : 0,
         "byteOffset" : 0,
         "componentType" : 5123,
         "count" : 12,
         "max" : [ 7 ],
         "min" : [ 0 ],
         "name" : "accessor_indices_0_m0-PolyGlass24_-339622",
         "type" : "SCALAR"
      },
      {
         "bufferView" : 0,
         "byteOffset" : 24,
         "componentType" : 5123,
         "count" : 360,
         "max" : [ 239 ],
         "min" : [ 0 ],
         "name" : "accessor_indices_0_m1-PolyPaper20_-339170",
         "type" : "SCALAR"
      },
      {
         "bufferView" : 1,
         "byteOffset" : 96,
         "componentType" : 5126,
         "count" : 8,
         "max" : [ 1, 2.78863e-14, 2.432843e-07 ],
         "min" : [ -1, -2.78863e-14, -2.432843e-07 ],
         "name" : "accessor_normal_m0-PolyGlass24_-339622",
         "type" : "VEC3"
      },
      {
         "bufferView" : 1,
         "byteOffset" : 3072,
         "componentType" : 5126,
         "count" : 240,
         "max" : [ 1, 1, 1 ],
         "min" : [ -1, -1, -1 ],
         "name" : "accessor_normal_m1-PolyPaper20_-339170",
         "type" : "VEC3"
      },
      {
         "bufferView" : 1,
         "byteOffset" : 0,
         "componentType" : 5126,
         "count" : 8,
         "max" : [ 1.190025, 1.609996, 0.9600011000000001 ],
         "min" : [ 1.190025, 1.089996, 0.470001 ],
         "name" : "accessor_position_m0-PolyGlass24_-339622",
         "type" : "VEC3"
      },
      {
         "bufferView" : 1,
         "byteOffset" : 192,
         "componentType" : 5126,
         "count" : 240,
         "max" : [ 1.220024, 1.640017, 0.9899901 ],
         "min" : [ 1.170003, 1.039972, 0.4299932 ],
         "name" : "accessor_position_m1-PolyPaper20_-339170",
         "type" : "VEC3"
      }
   ],
   "asset" : {
      "copyright" : "Unknown",
      "extras" : {
         "GOOGLE_processor_version" : 294144208
      },
      "generator" : "glTF 1-to-2 Upgrader for Google Blocks",
      "version" : "2.0"
   },
   "bufferViews" : [
      {
         "buffer" : 0,
         "byteLength" : 744,
         "byteOffset" : 0,
         "name" : "ushortBufferView",
         "target" : 34963
      },
      {
         "buffer" : 0,
         "byteLength" : 5952,
         "byteOffset" : 744,
         "byteStride" : 12,
         "name" : "vec3BufferView",
         "target" : 34962
      },
      {
         "buffer" : 0,
         "byteLength" : 3968,
         "byteOffset" : 6696,
         "byteStride" : 16,
         "name" : "vec4BufferView",
         "target" : 34962
      }
   ],
   "buffers" : [
      {
         "byteLength" : 10664,
         "name" : "model",
         "uri" : "model.bin"
      }
   ],
   "cameras" : [
      {
         "perspective" : {
            "yfov" : 0.7853981633974483,
            "znear" : 0.1000000014901161
         },
         "type" : "perspective"
      }
   ],
   "extensions" : {
      "KHR_lights_punctual" : {
         "lights" : [
            {
               "color" : [ 1, 0.9333333333333333, 0.8666666666666667 ],
               "intensity" : 0.25,
               "name" : "headLight",
               "type" : "directional"
            },
            {
               "color" : [ 1, 0.9333333333333333, 0.8666666666666667 ],
               "intensity" : 0.324999988079071,
               "name" : "keyLight",
               "type" : "directional"
            }
         ]
      }
   },
   "extensionsUsed" : [ "GOOGLE_backgrounds", "GOOGLE_camera_settings", "KHR_lights_punctual" ],
   "extras" : {
      "GOOGLE_initial_camera_motion" : {
         "motionPath" : "FULL_ROTATION"
      },
      "GOOGLE_lighting_rig" : {
         "disableShadows" : false
      }
   },
   "materials" : [
      {
         "alphaMode" : "OPAQUE",
         "doubleSided" : false,
         "name" : "BlocksPaper",
         "pbrMetallicRoughness" : {
            "baseColorFactor" : [ 1, 1, 1, 1 ],
            "metallicFactor" : 0,
            "roughnessFactor" : 0.6
         }
      },
      {
         "alphaMode" : "BLEND",
         "doubleSided" : false,
         "name" : "BlocksGlass",
         "pbrMetallicRoughness" : {
            "baseColorFactor" : [ 0.2, 0.2, 1, 0.3 ],
            "metallicFactor" : 1,
            "roughnessFactor" : 0.4
         }
      },
      {
         "alphaMode" : "OPAQUE",
         "doubleSided" : true,
         "name" : "BlocksGem",
         "pbrMetallicRoughness" : {
            "baseColorFactor" : [ 1, 0.4, 1, 1 ],
            "metallicFactor" : 0,
            "roughnessFactor" : 0.1
         }
      }
   ],
   "meshes" : [
      {
         "name" : "mesh_m0-PolyGlass24_-339622",
         "primitives" : [
            {
               "attributes" : {
                  "COLOR_0" : 0,
                  "NORMAL" : 4,
                  "POSITION" : 6
               },
               "indices" : 2,
               "material" : 1,
               "mode" : 4
            }
         ]
      },
      {
         "name" : "mesh_m1-PolyPaper20_-339170",
         "primitives" : [
            {
               "attributes" : {
                  "COLOR_0" : 1,
                  "NORMAL" : 5,
                  "POSITION" : 7
               },
               "indices" : 3,
               "material" : 0,
               "mode" : 4
            }
         ]
      }
   ],
   "nodes" : [
      {
         "mesh" : 0,
         "name" : "node_MeshObject-2093062656-PolyGlass24"
      },
      {
         "mesh" : 1,
         "name" : "node_MeshObject53453696-PolyPaper20"
      },
      {
         "children" : [ 3 ]
      },
      {
         "children" : [ 4 ],
         "extras" : {
            "isTransformNode" : 1
         },
         "translation" : [ 1.193513648509979, 1.338494436740875, 0.7114917618036269 ]
      },
      {
         "children" : [ 0, 1 ],
         "translation" : [ -1.193513648509979, -1.338494436740875, -0.7114917618036269 ]
      },
      {
         "camera" : 0,
         "children" : [ 6 ],
         "rotation" : [
            -0.03430664465874136,
            -0.4525372904230504,
            -0.01742594754364838,
            0.8909149180819842
         ],
         "translation" : [ -0.2025517076253891, 1.473211288452148, 1.7281574010849 ]
      },
      {
         "extensions" : {
            "KHR_lights_punctual" : {
               "light" : 0
            }
         },
         "extras" : {
            "isHeadLight" : 1
         },
         "name" : "headLightNode",
         "translation" : [ -0.4537831118686587, 0.2268915559343293, 0.2268915559343293 ]
      },
      {
         "extensions" : {
            "KHR_lights_punctual" : {
               "light" : 1
            }
         },
         "extras" : {
            "isKeyLight" : 1
         },
         "name" : "keyLightNode",
         "rotation" : [ -0.7505326882858236, -0.3752663441429118, 0, 0.5439447166468927 ],
         "scale" : [ 0, 0, 0.4583209429873453 ],
         "translation" : [ 0.7355594862036289, 2.256478910263483, 0.2499077879998113 ]
      }
   ],
   "scene" : 0,
   "scenes" : [
      {
         "extensions" : {
            "GOOGLE_backgrounds" : {
               "color" : [ 0.9333333333333333, 0.9333333333333333, 0.9333333333333333 ]
            },
            "GOOGLE_camera_settings" : {}
         },
         "extras" : {
            "GOOGLE_camera_index" : {
               "cameraIndex" : 0,
               "nodeIndex" : 5
            },
            "GOOGLE_geometry_data" : {
               "stats" : {
                  "centroid" : [ 1.193880429190974, 1.339837024288793, 0.7082287309871566 ],
                  "radius" : 0.4537831118686587,
                  "stdev" : 0.3592013852927076
               },
               "visualCenterPoint" : [ 1.193513648509979, 1.338494436740875, 0.7114917618036269 ]
            },
            "GOOGLE_hemi_light" : {
               "groundColor" : [ 0.9333333333333333, 0.9333333333333333, 0.9333333333333333 ]
            }
         },
         "name" : "defaultScene",
         "nodes" : [ 2, 5, 7 ]
      }
   ]
}
