{
  "accessors": [
    {
      "bufferView": 2,
      "componentType": 5126,
      "count": 1839,
      "max": [
        1,
        3.1235918998718262,
        1.0044952630996704
      ],
      "min": [
        -1,
        -1,
        -1
      ],
      "type": "VEC3"
    },
    {
      "bufferView": 2,
      "byteOffset": 22068,
      "componentType": 5126,
      "count": 1839,
      "max": [
        0.99999356269836426,
        0.9999854564666748,
        0.99999356269836426
      ],
      "min": [
        -0.99999833106994629,
        -0.9999854564666748,
        -0.99999356269836426
      ],
      "type": "VEC3"
    },
    {
      "bufferView": 3,
      "componentType": 5126,
      "count": 1839,
      "max": [
        0.9999995231628418,
        1,
        0.95863991975784302,
        1
      ],
      "min": [
        -0.99999988079071045,
        -0.98372519016265869,
        -0.9954182505607605,
        -1
      ],
      "type": "VEC4"
    },
    {
      "bufferView": 1,
      "componentType": 5126,
      "count": 1839,
      "max": [
        0.875,
        1
      ],
      "min": [
        0.125,
        0
      ],
      "type": "VEC2"
    },
    {
      "bufferView": 0,
      "componentType": 5125,
      "count": 8706,
      "max": [
        1838
      ],
      "min": [
        0
      ],
      "type": "SCALAR"
    },
    {
      "bufferView": 2,
      "byteOffset": 44136,
      "componentType": 5126,
      "count": 244,
      "max": [
        0.084051430225372314,
        0.0097904205322265625,
        0.084051430225372314
      ],
      "min": [
        -0.37881606817245483,
        0,
        -0.084051430225372314
      ],
      "type": "VEC3"
    },
    {
      "bufferView": 2,
      "byteOffset": 47064,
      "componentType": 5126,
      "count": 244,
      "max": [
        0.99964582920074463,
        0.99959564208984375,
        0.9986385703086853
      ],
      "min": [
        -0.99964582920074463,
        -0.99959564208984375,
        -0.9986385703086853
      ],
      "type": "VEC3"
    },
    {
      "bufferView": 3,
      "byteOffset": 29424,
      "componentType": 5126,
      "count": 244,
      "max": [
        0,
        0,
        0,
        1
      ],
      "min": [
        0,
        0,
        0,
        1
      ],
      "type": "VEC4"
    },
    {
      "bufferView": 1,
      "byteOffset": 14712,
      "componentType": 5126,
      "count": 244,
      "max": [
        0,
        0
      ],
      "min": [
        0,
        0
      ],
      "type": "VEC2"
    },
    {
      "bufferView": 0,
      "byteOffset": 34824,
      "componentType": 5125,
      "count": 948,
      "max": [
        243
      ],
      "min": [
        0
      ],
      "type": "SCALAR"
    },
    {
      "bufferView": 2,
      "byteOffset": 49992,
      "componentType": 5126,
      "count": 244,
      "max": [
        0.084051430225372314,
        0.0097904205322265625,
        0.084051430225372314
      ],
      "min": [
        -0.37881606817245483,
        0,
        -0.084051430225372314
      ],
      "type": "VEC3"
    },
    {
      "bufferView": 2,
      "byteOffset": 52920,
      "componentType": 5126,
      "count": 244,
      "max": [
        0.99964582920074463,
        0.99959564208984375,
        0.9986385703086853
      ],
      "min": [
        -0.99964582920074463,
        -0.99959564208984375,
        -0.9986385703086853
      ],
      "type": "VEC3"
    },
    {
      "bufferView": 3,
      "byteOffset": 33328,
      "componentType": 5126,
      "count": 244,
      "max": [
        0,
        0,
        0,
        1
      ],
      "min": [
        0,
        0,
        0,
        1
      ],
      "type": "VEC4"
    },
    {
      "bufferView": 1,
      "byteOffset": 16664,
      "componentType": 5126,
      "count": 244,
      "max": [
        0,
        0
      ],
      "min": [
        0,
        0
      ],
      "type": "VEC2"
    },
    {
      "bufferView": 0,
      "byteOffset": 38616,
      "componentType": 5125,
      "count": 948,
      "max": [
        243
      ],
      "min": [
        0
      ],
      "type": "SCALAR"
    },
    {
      "bufferView": 2,
      "byteOffset": 55848,
      "componentType": 5126,
      "count": 144,
      "max": [
        1,
        1,
        1
      ],
      "min": [
        -1,
        -5.1602849960327148,
        -1
      ],
      "type": "VEC3"
    },
    {
      "bufferView": 2,
      "byteOffset": 57576,
      "componentType": 5126,
      "count": 144,
      "max": [
        1,
        1,
        1
      ],
      "min": [
        -1,
        -1,
        -1
      ],
      "type": "VEC3"
    },
    {
      "bufferView": 3,
      "byteOffset": 37232,
      "componentType": 5126,
      "count": 144,
      "max": [
        1,
        1,
        -0,
        1
      ],
      "min": [
        -1,
        -0.038001254200935364,
        -3.9891619962872937e-05,
        1
      ],
      "type": "VEC4"
    },
    {
      "bufferView": 1,
      "byteOffset": 18616,
      "componentType": 5126,
      "count": 144,
      "max": [
        0.875,
        1
      ],
      "min": [
        0.125,
        0
      ],
      "type": "VEC2"
    },
    {
      "bufferView": 0,
      "byteOffset": 42408,
      "componentType": 5125,
      "count": 216,
      "max": [
        143
      ],
      "min": [
        0
      ],
      "type": "SCALAR"
    },
    {
      "bufferView": 2,
      "byteOffset": 59304,
      "componentType": 5126,
      "count": 2588,
      "max": [
        -0.0097375577315688133,
        1.0753343105316162,
        0.054030302911996841
      ],
      "min": [
        -0.20331929624080658,
        -1.0752564668655396,
        -0.054014243185520172
      ],
      "type": "VEC3"
    },
    {
      "bufferView": 2,
      "byteOffset": 90360,
      "componentType": 5126,
      "count": 2588,
      "max": [
        0.99998509883880615,
        0.99999988079071045,
        0.99999964237213135
      ],
      "min": [
        -0.99999785423278809,
        -0.99999880790710449,
        -1
      ],
      "type": "VEC3"
    },
    {
      "bufferView": 3,
      "byteOffset": 39536,
      "componentType": 5126,
      "count": 2588,
      "max": [
        1,
        1,
        0.99999344348907471,
        1
      ],
      "min": [
        -1,
        -1,
        -0.99980360269546509,
        -1
      ],
      "type": "VEC4"
    },
    {
      "bufferView": 1,
      "byteOffset": 19768,
      "componentType": 5126,
      "count": 2588,
      "max": [
        0.87500005960464478,
        1
      ],
      "min": [
        0.49999991059303284,
        -0.00793450977653265
      ],
      "type": "VEC2"
    },
    {
      "bufferView": 0,
      "byteOffset": 43272,
      "componentType": 5125,
      "count": 11520,
      "max": [
        2587
      ],
      "min": [
        0
      ],
      "type": "SCALAR"
    },
    {
      "bufferView": 2,
      "byteOffset": 121416,
      "componentType": 5126,
      "count": 768,
      "max": [
        0.63405096530914307,
        -0.95293045043945312,
        0.87635433673858643
      ],
      "min": [
        -0.88883769512176514,
        -1.047060489654541,
        -0.87635445594787598
      ],
      "type": "VEC3"
    },
    {
      "bufferView": 2,
      "byteOffset": 130632,
      "componentType": 5126,
      "count": 768,
      "max": [
        0.99518507719039917,
        1,
        0.99518740177154541
      ],
      "min": [
        -0.99518507719039917,
        -1,
        -0.99518507719039917
      ],
      "type": "VEC3"
    },
    {
      "bufferView": 3,
      "byteOffset": 80944,
      "componentType": 5126,
      "count": 768,
      "max": [
        1,
        1.8183683323513833e-06,
        0.99518501758575439,
        1
      ],
      "min": [
        -1,
        -2.0204099655529717e-06,
        -0.99518501758575439,
        -1
      ],
      "type": "VEC4"
    },
    {
      "bufferView": 1,
      "byteOffset": 40472,
      "componentType": 5126,
      "count": 768,
      "max": [
        1,
        1
      ],
      "min": [
        0,
        0.01000000536441803
      ],
      "type": "VEC2"
    },
    {
      "bufferView": 0,
      "byteOffset": 89352,
      "componentType": 5125,
      "count": 1488,
      "max": [
        767
      ],
      "min": [
        0
      ],
      "type": "SCALAR"
    }
  ],
  "asset": {
    "extras": {
      "author": "rivego (https://sketchfab.com/rivego)",
      "license": "CC-BY-4.0 (http://creativecommons.org/licenses/by/4.0/)",
      "source": "https://sketchfab.com/3d-models/refrigerador-1b48a3d913474e6890b8b8163bb5407c",
      "title": "Refrigerador"
    },
    "generator": "Sketchfab-6.0.0",
    "version": "2.0"
  },
  "bufferViews": [
    {
      "buffer": 0,
      "byteLength": 95304,
      "byteOffset": 0,
      "name": "floatBufferViews",
      "target": 34963
    },
    {
      "buffer": 0,
      "byteLength": 46616,
      "byteOffset": 95304,
      "byteStride": 8,
      "name": "floatBufferViews",
      "target": 34962
    },
    {
      "buffer": 0,
      "byteLength": 139848,
      "byteOffset": 141920,
      "byteStride": 12,
      "name": "floatBufferViews",
      "target": 34962
    },
    {
      "buffer": 0,
      "byteLength": 93232,
      "byteOffset": 281768,
      "byteStride": 16,
      "name": "floatBufferViews",
      "target": 34962
    }
  ],
  "buffers": [
    {
      "byteLength": 375000,
      "uri": "scene.bin"
    }
  ],
  "materials": [
    {
      "doubleSided": true,
      "name": "material_0",
      "pbrMetallicRoughness": {
        "baseColorFactor": [
          0.03709710925778361,
          0.03709710925778361,
          0.03709710925778361,
          1
        ],
        "metallicFactor": 0,
        "roughnessFactor": 0.59999999999999998
      }
    },
    {
      "doubleSided": true,
      "emissiveFactor": [
        0,
        0,
        0
      ],
      "name": "Refri",
      "pbrMetallicRoughness": {
        "baseColorFactor": [
          1,
          1,
          1,
          1
        ],
        "metallicFactor": 0.30659298780487804,
        "roughnessFactor": 0
      }
    },
    {
      "doubleSided": true,
      "emissiveFactor": [
        0,
        0,
        0
      ],
      "name": "hule",
      "pbrMetallicRoughness": {
        "baseColorFactor": [
          0.051766289830066425,
          0.040016867764332421,
          0.040016867764332421,
          1
        ],
        "metallicFactor": 0.2578125,
        "roughnessFactor": 0.5
      }
    },
    {
      "doubleSided": true,
      "emissiveFactor": [
        0,
        0,
        0
      ],
      "name": "agarradera",
      "pbrMetallicRoughness": {
        "baseColorFactor": [
          0.80000000000000004,
          0.80000000000000004,
          0.80000000000000004,
          1
        ],
        "metallicFactor": 1,
        "roughnessFactor": 0.062690548780487798
      }
    }
  ],
  "meshes": [
    {
      "primitives": [
        {
          "attributes": {
            "NORMAL": 1,
            "POSITION": 0,
            "TANGENT": 2,
            "TEXCOORD_0": 3
          },
          "indices": 4,
          "material": 1,
          "mode": 4
        }
      ]
    },
    {
      "primitives": [
        {
          "attributes": {
            "NORMAL": 6,
            "POSITION": 5,
            "TANGENT": 7,
            "TEXCOORD_0": 8
          },
          "indices": 9,
          "material": 0,
          "mode": 4
        }
      ]
    },
    {
      "primitives": [
        {
          "attributes": {
            "NORMAL": 11,
            "POSITION": 10,
            "TANGENT": 12,
            "TEXCOORD_0": 13
          },
          "indices": 14,
          "material": 1,
          "mode": 4
        }
      ]
    },
    {
      "primitives": [
        {
          "attributes": {
            "NORMAL": 16,
            "POSITION": 15,
            "TANGENT": 17,
            "TEXCOORD_0": 18
          },
          "indices": 19,
          "material": 2,
          "mode": 4
        }
      ]
    },
    {
      "primitives": [
        {
          "attributes": {
            "NORMAL": 21,
            "POSITION": 20,
            "TANGENT": 22,
            "TEXCOORD_0": 23
          },
          "indices": 24,
          "material": 3,
          "mode": 4
        }
      ]
    },
    {
      "primitives": [
        {
          "attributes": {
            "NORMAL": 26,
            "POSITION": 25,
            "TANGENT": 27,
            "TEXCOORD_0": 28
          },
          "indices": 29,
          "material": 0,
          "mode": 4
        }
      ]
    }
  ],
  "nodes": [
    {
      "children": [
        1
      ],
      "name": "RootNode (gltf orientation matrix)",
      "rotation": [
        -0.70710678118654746,
        -0,
        -0,
        0.70710678118654757
      ]
    },
    {
      "children": [
        2
      ],
      "name": "RootNode (model correction matrix)"
    },
    {
      "children": [
        3
      ],
      "name": "root"
    },
    {
      "children": [
        4
      ],
      "matrix": [
        1,
        0,
        0,
        0,
        0,
        2.2204460492503131e-16,
        1,
        0,
        0,
        -1,
        2.2204460492503131e-16,
        0,
        0,
        0,
        0,
        1
      ],
      "name": "GLTF_SceneRootNode"
    },
    {
      "children": [
        5,
        6,
        8,
        10,
        12,
        14
      ],
      "name": "Cube_5"
    },
    {
      "mesh": 0,
      "name": ""
    },
    {
      "children": [
        7
      ],
      "matrix": [
        1,
        0,
        0,
        0,
        0,
        1,
        0,
        0,
        0,
        0,
        1,
        0,
        0.87609308958053589,
        3.1229424476623535,
        -0.87303638458251953,
        1
      ],
      "name": "Circle_0"
    },
    {
      "mesh": 1,
      "name": ""
    },
    {
      "children": [
        9
      ],
      "matrix": [
        1,
        0,
        0,
        0,
        0,
        1,
        0,
        0,
        0,
        0,
        1,
        0,
        0.87609308958053589,
        1.6272904872894287,
        -0.87303638458251953,
        1
      ],
      "name": "Circle.001_1"
    },
    {
      "mesh": 2,
      "name": ""
    },
    {
      "children": [
        11
      ],
      "matrix": [
        0.088004961609840393,
        0,
        0,
        0,
        0,
        0.64444398880004883,
        0,
        0,
        0,
        0,
        0.93509364128112793,
        0,
        0.76242280006408691,
        2.4151773452758789,
        0,
        1
      ],
      "name": "Cube.003_2"
    },
    {
      "mesh": 3,
      "name": ""
    },
    {
      "children": [
        13
      ],
      "matrix": [
        1,
        0,
        0,
        0,
        0,
        1,
        0,
        0,
        0,
        0,
        1,
        0,
        1.1417486667633057,
        1.6618731021881104,
        0.78252798318862915,
        1
      ],
      "name": "Cube.004_3"
    },
    {
      "mesh": 4,
      "name": ""
    },
    {
      "children": [
        15
      ],
      "name": "Cylinder_4"
    },
    {
      "mesh": 5,
      "name": ""
    }
  ],
  "scene": 0,
  "scenes": [
    {
      "name": "OSG_Scene",
      "nodes": [
        0
      ]
    }
  ]
}

